{
  "accessors": [
    {
      "bufferView": 2,
      "componentType": 5126,
      "count": 9562,
      "max": [
        3.676295518875122,
        5.144078731536865,
        2.047060251235962
      ],
      "min": [
        -3.676295518875122,
        -0.00795447826385498,
        -4.922438621520996
      ],
      "type": "VEC3"
    },
    {
      "bufferView": 2,
      "byteOffset": 114744,
      "componentType": 5126,
      "count": 9562,
      "max": [
        1.0,
        1.0,
        1.0
      ],
      "min": [
        -1.0,
        -1.0,
        -1.0
      ],
      "type": "VEC3"
    },
    {
      "bufferView": 1,
      "componentType": 5126,
      "count": 9562,
      "max": [
        0.998046875,
        0.9985195398330688
      ],
      "min": [
        0.001953125,
        0.001958673121407628
      ],
      "type": "VEC2"
    },
    {
      "bufferView": 0,
      "componentType": 5125,
      "count": 18483,
      "type": "SCALAR"
    },
    {
      "bufferView": 2,
      "byteOffset": 229488,
      "componentType": 5126,
      "count": 6,
      "max": [
        3.3720598220825195,
        4.721486568450928,
        -3.421328544616699
      ],
      "min": [
        -3.3720598220825195,
        1.12466561794281,
        -4.733052730560303
      ],
      "type": "VEC3"
    },
    {
      "bufferView": 2,
      "byteOffset": 229560,
      "componentType": 5126,
      "count": 6,
      "max": [
        7.92834453022806e-06,
        0.3426094651222229,
        0.9394779801368713
      ],
      "min": [
        -7.92834453022806e-06,
        0.3426094353199005,
        0.9394779205322266
      ],
      "type": "VEC3"
    },
    {
      "bufferView": 1,
      "byteOffset": 76496,
      "componentType": 5126,
      "count": 6,
      "max": [
        0.9999998807907104,
        1.0
      ],
      "min": [
        -2.9802322387695313e-08,
        0.0
      ],
      "type": "VEC2"
    },
    {
      "bufferView": 0,
      "byteOffset": 73932,
      "componentType": 5125,
      "count": 12,
      "type": "SCALAR"
    }
  ],
  "asset": {
    "extras": {
      "author": "SadiqKhan911 (https://sketchfab.com/SadiqKhan911)",
      "license": "CC-BY-4.0 (http://creativecommons.org/licenses/by/4.0/)",
      "source": "https://sketchfab.com/3d-models/laptop-75b0086c55044de59aa0126f4f30933f",
      "title": "Laptop"
    },
    "generator": "Sketchfab-14.33.0",
    "version": "2.0"
  },
  "bufferViews": [
    {
      "buffer": 0,
      "byteLength": 73980,
      "name": "floatBufferViews",
      "target": 34963
    },
    {
      "buffer": 0,
      "byteLength": 76544,
      "byteOffset": 73980,
      "byteStride": 8,
      "name": "floatBufferViews",
      "target": 34962
    },
    {
      "buffer": 0,
      "byteLength": 229632,
      "byteOffset": 150524,
      "byteStride": 12,
      "name": "floatBufferViews",
      "target": 34962
    }
  ],
  "buffers": [
    {
      "byteLength": 380156,
      "uri": "scene.bin"
    }
  ],
  "images": [
    {
      "uri": "textures/lambert7_baseColor.jpeg"
    },
    {
      "uri": "textures/lambert4_baseColor.png"
    }
  ],
  "materials": [
    {
      "doubleSided": true,
      "name": "lambert7",
      "pbrMetallicRoughness": {
        "baseColorTexture": {
          "index": 0
        },
        "metallicFactor": 0.0,
        "roughnessFactor": 0.6
      }
    },
    {
      "doubleSided": true,
      "name": "lambert4",
      "pbrMetallicRoughness": {
        "baseColorTexture": {
          "index": 1
        },
        "metallicFactor": 0.0,
        "roughnessFactor": 0.6
      }
    }
  ],
  "meshes": [
    {
      "name": "laptopheatcell_LP_lambert7_0",
      "primitives": [
        {
          "attributes": {
            "NORMAL": 1,
            "POSITION": 0,
            "TEXCOORD_0": 2
          },
          "indices": 3,
          "material": 0,
          "mode": 4
        }
      ]
    },
    {
      "name": "laptopheatcell_LP_lambert4_0",
      "primitives": [
        {
          "attributes": {
            "NORMAL": 5,
            "POSITION": 4,
            "TEXCOORD_0": 6
          },
          "indices": 7,
          "material": 1,
          "mode": 4
        }
      ]
    }
  ],
  "nodes": [
    {
      "children": [
        1
      ],
      "matrix": [
        1.0,
        0.0,
        0.0,
        0.0,
        0.0,
        2.220446049250313e-16,
        -1.0,
        0.0,
        0.0,
        1.0,
        2.220446049250313e-16,
        0.0,
        0.0,
        0.0,
        0.0,
        1.0
      ],
      "name": "Sketchfab_model"
    },
    {
      "children": [
        2
      ],
      "matrix": [
        0.009999999776482582,
        0.0,
        0.0,
        0.0,
        0.0,
        0.0,
        0.009999999776482582,
        0.0,
        0.0,
        -0.009999999776482582,
        0.0,
        0.0,
        0.0,
        0.0,
        0.0,
        1.0
      ],
      "name": "cd8a895f43134fa28fc28834ab0a600d.fbx"
    },
    {
      "children": [
        3
      ],
      "name": "RootNode"
    },
    {
      "children": [
        4,
        5
      ],
      "matrix": [
        309.1840515136719,
        0.0,
        0.0,
        0.0,
        0.0,
        309.1840515136719,
        0.0,
        0.0,
        0.0,
        0.0,
        309.1840515136719,
        0.0,
        -1.8369200915913098e-05,
        401.7332763671875,
        455.4355163574219,
        1.0
      ],
      "name": "laptopheatcell_LP"
    },
    {
      "mesh": 0,
      "name": "laptopheatcell_LP_lambert7_0"
    },
    {
      "mesh": 1,
      "name": "laptopheatcell_LP_lambert4_0"
    }
  ],
  "samplers": [
    {
      "magFilter": 9729,
      "minFilter": 9987,
      "wrapS": 10497,
      "wrapT": 10497
    }
  ],
  "scene": 0,
  "scenes": [
    {
      "name": "Sketchfab_Scene",
      "nodes": [
        0
      ]
    }
  ],
  "textures": [
    {
      "sampler": 0,
      "source": 0
    },
    {
      "sampler": 0,
      "source": 1
    }
  ]
}
